<svg width="100" height="100" viewBox="0 0 100 100" fill="none" xmlns="http://www.w3.org/2000/svg">
<rect width="100" height="100" rx="50" fill="#D9D9D9"/>
<path d="M28.224 61.048C25.568 61.048 23.184 60.504 21.072 59.416C18.992 58.328 17.36 56.792 16.176 54.808C14.992 52.824 14.4 50.536 14.4 47.944C14.4 46.184 14.752 44.568 15.456 43.096C16.16 41.624 17.184 40.456 18.528 39.592C19.872 38.696 21.456 38.248 23.28 38.248C26.736 38.248 29.808 38.84 32.496 40.024C35.216 41.176 37.328 42.84 38.832 45.016C40.368 47.192 41.136 49.704 41.136 52.552C41.136 54.44 40.432 56.024 39.024 57.304C37.648 58.584 35.952 59.528 33.936 60.136C31.952 60.744 30.048 61.048 28.224 61.048ZM27.312 58.552C30.512 58.552 33.2 58.072 35.376 57.112C37.584 56.152 38.688 54.552 38.688 52.312C38.688 48.408 37.184 45.48 34.176 43.528C31.168 41.544 27.328 40.552 22.656 40.552C20.416 40.552 18.832 41.224 17.904 42.568C17.008 43.88 16.56 45.672 16.56 47.944C16.56 49.832 17.008 51.592 17.904 53.224C18.832 54.824 20.112 56.12 21.744 57.112C23.376 58.072 25.232 58.552 27.312 58.552ZM49.6909 61C48.3789 58.44 47.3389 55.432 46.5709 51.976C45.8349 48.52 45.4669 45.528 45.4669 43C45.4669 42.008 45.6909 41.368 46.1389 41.08C46.3949 40.92 46.5869 40.84 46.7149 40.84C46.9389 40.84 47.0989 41.016 47.1949 41.368C47.3229 41.72 47.4509 42.36 47.5789 43.288L47.8189 45.016C48.1709 43.288 48.8429 41.928 49.8349 40.936C50.8589 39.912 52.1069 39.4 53.5789 39.4C55.2109 39.4 56.4269 39.72 57.2269 40.36C58.0269 40.968 58.4269 41.992 58.4269 43.432C56.8269 42.664 55.3709 42.28 54.0589 42.28C52.8109 42.28 51.7389 42.616 50.8429 43.288C49.9469 43.96 49.3229 44.952 48.9709 46.264C48.6829 47.16 48.5389 48.008 48.5389 48.808C48.5389 49.672 48.6509 50.488 48.8749 51.256C49.1309 51.992 49.5149 52.904 50.0269 53.992C50.5069 55.112 50.8749 56.072 51.1309 56.872C51.4189 57.672 51.5789 58.536 51.6109 59.464C51.6109 60.008 51.4189 60.408 51.0349 60.664C50.6509 60.888 50.2029 61 49.6909 61ZM63.3983 61C62.8223 61 62.3103 60.744 61.8623 60.232C61.4463 59.688 61.1103 59.064 60.8543 58.36C60.6303 57.624 60.5183 57 60.5183 56.488C60.5183 55.464 60.6623 54.616 60.9503 53.944C61.2703 53.24 61.6383 52.744 62.0543 52.456C62.4703 52.136 62.8543 51.976 63.2063 51.976C64.3263 51.976 65.2223 52.52 65.8943 53.608C66.5663 54.664 66.9023 55.8 66.9023 57.016C66.9023 57.496 66.7103 58.056 66.3263 58.696C65.9743 59.336 65.5263 59.88 64.9823 60.328C64.4383 60.776 63.9103 61 63.3983 61ZM73.1951 61C72.6191 61 72.1071 60.744 71.6591 60.232C71.2431 59.688 70.9071 59.064 70.6511 58.36C70.4271 57.624 70.3151 57 70.3151 56.488C70.3151 55.464 70.4591 54.616 70.7471 53.944C71.0671 53.24 71.4351 52.744 71.8511 52.456C72.2671 52.136 72.6511 51.976 73.0031 51.976C74.1231 51.976 75.0191 52.52 75.6911 53.608C76.3631 54.664 76.6991 55.8 76.6991 57.016C76.6991 57.496 76.5071 58.056 76.1231 58.696C75.7711 59.336 75.3231 59.88 74.7791 60.328C74.2351 60.776 73.7071 61 73.1951 61ZM82.992 61C82.416 61 81.904 60.744 81.456 60.232C81.04 59.688 80.704 59.064 80.448 58.36C80.224 57.624 80.112 57 80.112 56.488C80.112 55.464 80.256 54.616 80.544 53.944C80.864 53.24 81.232 52.744 81.648 52.456C82.064 52.136 82.448 51.976 82.8 51.976C83.92 51.976 84.816 52.52 85.488 53.608C86.16 54.664 86.496 55.8 86.496 57.016C86.496 57.496 86.304 58.056 85.92 58.696C85.568 59.336 85.12 59.88 84.576 60.328C84.032 60.776 83.504 61 82.992 61Z" fill="black"/>
</svg>
